<?xml version="1.0" standalone="no"?>
<!DOCTYPE svg PUBLIC "-//W3C//DTD SVG 20010904//EN"
 "http://www.w3.org/TR/2001/REC-SVG-20010904/DTD/svg10.dtd">
<svg version="1.0" xmlns="http://www.w3.org/2000/svg"
 width="700.000000pt" height="700.000000pt" viewBox="0 0 700.000000 700.000000"
 preserveAspectRatio="xMidYMid meet">
<metadata>
Created by potrace 1.14, written by Peter Selinger 2001-2017
</metadata>
<g transform="translate(0.000000,700.000000) scale(0.100000,-0.100000)"
fill="#000000" stroke="none">
<path d="M3340 6573 c-80 -47 -163 -95 -185 -108 -22 -12 -112 -64 -200 -115
-327 -189 -551 -318 -585 -338 -75 -41 -526 -303 -540 -312 -8 -5 -42 -25 -74
-42 -32 -18 -66 -37 -75 -43 -9 -5 -88 -51 -176 -102 -88 -50 -168 -98 -178
-106 -18 -13 -19 -42 -19 -633 0 -340 1 -624 1 -631 1 -10 109 -77 256 -158
22 -12 121 -69 220 -127 99 -58 313 -181 475 -275 162 -94 311 -180 330 -191
19 -11 51 -29 70 -40 31 -17 434 -250 700 -404 52 -30 187 -108 300 -173 113
-65 269 -155 348 -201 79 -46 145 -84 147 -84 3 0 29 -16 59 -35 30 -19 57
-35 60 -35 5 0 102 -56 156 -90 8 -5 48 -28 88 -51 41 -23 70 -45 65 -49 -4
-5 -35 -24 -68 -43 -81 -46 -373 -215 -410 -238 -16 -10 -43 -25 -60 -33 -16
-8 -145 -82 -285 -164 -254 -148 -255 -149 -285 -134 -16 8 -113 63 -215 122
-102 59 -351 203 -555 320 -720 416 -880 508 -915 529 -34 20 -185 107 -314
180 -18 11 -63 37 -100 59 -53 33 -66 38 -67 24 0 -9 -2 -294 -2 -633 l-2
-616 189 -109 c103 -60 207 -120 230 -133 54 -31 316 -183 341 -198 11 -7 29
-16 40 -22 11 -5 82 -45 157 -89 76 -44 138 -78 138 -74 0 4 4 2 8 -4 7 -11
51 -39 153 -96 24 -14 132 -76 239 -138 107 -62 209 -121 225 -130 17 -10 124
-72 238 -138 115 -67 217 -124 227 -127 18 -6 64 19 795 444 138 79 279 161
315 181 36 20 164 94 285 165 121 70 240 139 265 153 25 13 86 48 135 77 255
150 388 225 396 225 11 0 10 -60 11 668 1 579 0 603 -18 617 -16 12 -76 47
-229 135 -162 93 -498 288 -527 306 -21 13 -40 24 -43 24 -2 0 -49 27 -103 59
-112 67 -159 92 -168 90 -4 0 -10 4 -13 9 -3 5 -105 67 -226 136 -121 70 -227
132 -235 137 -13 8 -537 310 -1470 847 -129 74 -240 135 -246 135 -7 0 -10 6
-7 14 3 7 9 13 13 13 5 0 80 41 167 91 87 51 172 100 188 109 487 280 714 414
709 421 -4 7 59 -27 241 -131 163 -93 612 -354 620 -360 6 -4 35 -21 65 -37
30 -17 109 -62 175 -100 66 -38 140 -81 165 -95 25 -14 117 -67 205 -119 595
-345 727 -420 732 -415 3 3 6 285 7 628 l1 623 -53 33 c-29 17 -55 32 -58 32
-3 0 -17 9 -32 19 -15 10 -205 121 -422 246 -217 125 -410 236 -427 246 -88
50 -103 58 -103 51 0 -4 -5 1 -11 11 -5 9 -14 17 -20 17 -5 0 -26 11 -47 24
-20 13 -185 109 -367 214 -181 104 -401 231 -488 281 -86 50 -163 91 -170 90
-6 0 -77 -39 -157 -86z"/>
</g>
</svg>
